# xmcd
#
# Track frame offsets: 
#        150
#        13322
#        39517
#        50707
#        62807
#        80407
#        91315
#        108607
#        115627
#        126315
#        140607
#        163450
#        178080
#        187487
#        201857
#        213362
#        222765
#        234367
#        245640
#        256384
#
# Disc length: 3560 seconds
#
# Revision: 3
# Processed by: cddbd v1.5.2PL0 Copyright (c) Steve Scherf et al.
# Submitted via: ExactAudioCopyFreeDBPlugin 1.0
#
DISCID=380de614
DTITLE=Various Artist - Dueling Banjos
DYEAR=2002
DGENRE=Bluegrass
TTITLE0=Charlie Cushman - The Star Spangled Banner
TTITLE1=Mike "Chickenhawk Toppins vs. Bennie Boling - Original Dueling
TTITLE1=Banjos: The Sequel
TTITLE2=Heights Of Grass featuring Richard Ward - Bile 'em Cabbage Dow
TTITLE2=n
TTITLE3=The Pinnacle Boys featuring Mike Pearson - Wheels
TTITLE4=Mark Thornton - Bolero
TTITLE5=The Osborne Brothers featuring Sonny Osborne - Home Sweet Home
TTITLE6=The Nashville Superpickers featuring Mike "Chickenhawk Toppins
TTITLE6=New Kid In Town
TTITLE7=Ramona and Mark Jones - Cluck Ol' Hen
TTITLE8=Wynn Osborne - Banjo Signal
TTITLE9=Don Reno and The Tennessee Cutups - Skyline Drive
TTITLE10=Mike "Chickenhawk Toppins - American Pie
TTITLE11=The Cache Valley Drifters featuring David West - Yacht Crash
TTITLE12=Stonemans featuring Eddie Mueller - Soldier's Joy
TTITLE13=Mike "Chickenhawk Toppins - Classical Gas
TTITLE14=The Masters featuring Eddie Adcock - Rambling Gambling Rag
TTITLE15=Wynn Osborne - Tequila
TTITLE16=The Pinnacle Boys featuring Mike Pearson - Latin Leprechaun
TTITLE17=Eddie Adcock - Limehouse Blues
TTITLE18=The Nashville Superpickers with Mike "Chickenhawk Toppins - I
TTITLE18=Wanna Hold Your Hand
TTITLE19=Arthur Smith and David Johnson - Banjo Buster
EXTD=YEAR: 1997
EXTT0=
EXTT1=
EXTT2=
EXTT3=
EXTT4=
EXTT5=
EXTT6=
EXTT7=
EXTT8=
EXTT9=
EXTT10=
EXTT11=
EXTT12=
EXTT13=
EXTT14=
EXTT15=
EXTT16=
EXTT17=
EXTT18=
EXTT19=
PLAYORDER=
